# xmcd
#
# Track frame offsets:
# 150
# 17029
# 37553
# 55774
# 70563
# 86119
# 102583
# 116388
# 137275
# 154710
# 171484
# 186319
#
# Disc length: 2641 seconds
#
#
# Revision: 1
# Processed by: cddbd v1.5.2PL0 Copyright (c) Steve Scherf et al.
# Submitted via: MfcCDDB 1.28 
#
DISCID=920a4f0c
DTITLE=Recanto Serra - Recanto Serra
DYEAR=2000
DGENRE=Country
TTITLE0=Track01
TTITLE1=Track02
TTITLE2=Track03
TTITLE3=Track04
TTITLE4=Track05
TTITLE5=Track06
TTITLE6=Track07
TTITLE7=Track08
TTITLE8=Track09
TTITLE9=Track10
TTITLE10=Track11
TTITLE11=Track12
EXTD=
EXTT0=
EXTT1=
EXTT2=
EXTT3=
EXTT4=
EXTT5=
EXTT6=
EXTT7=
EXTT8=
EXTT9=
EXTT10=
EXTT11=
PLAYORDER=
